<?xml version="1.0" encoding="UTF-8"?>
<svg xmlns="http://www.w3.org/2000/svg" version="1.1" viewBox="0 0 2646 1080">
  <defs>
    <style>
      .cls-1, .cls-2 {
        fill: #4d7758;
      }

      .cls-2 {
        stroke: #4d7758;
        stroke-miterlimit: 10;
      }
    </style>
  </defs>
  <!-- Generator: Adobe Illustrator 28.7.3, SVG Export Plug-In . SVG Version: 1.2.0 Build 164)  -->
  <g>
    <g id="_레이어_1" data-name="레이어_1">
      <g>
        <path class="cls-1" d="M137.72,571.26c5.16,4.93,19.48,16.68,40.73,19.45,1.8.24,3.66.54,5.49.83,4.61.74,9.03,1.45,13.2,1.45,1.72,0,3.39-.12,5.01-.41,8.02-1.43,13.54-9.11,12.12-17.13-1.43-8.02-8.92-13.4-16.92-11.96-1.44.09-5.84-.61-8.74-1.07-2.12-.34-4.26-.68-6.34-.95-12.98-1.69-21.8-9.27-24.19-11.55-5.9-5.63-10.86-13.29-14.34-22.16-2.98-7.58-11.54-11.31-19.12-8.33-7.58,2.98-11.31,11.54-8.33,19.12,5.12,13.01,12.33,24.02,21.44,32.71Z"/>
        <path class="cls-1" d="M72.13,753.37c11.6,3.54,27.02,6.7,45.08,6.7,13.78,0,29.09-1.84,45.43-6.75,31.7-9.53,54.36-26.91,67.94-40.04,14.94,8.07,37.27,16.72,64.4,16.72,5.47,0,11.14-.35,16.97-1.13,31.7-4.23,55.41-19.3,69.72-31.21,6.26-5.21,7.11-14.51,1.9-20.77-5.21-6.26-14.51-7.11-20.77-1.9-11.32,9.42-30.02,21.35-54.75,24.64-23.66,3.16-43.79-2.82-57.89-9.48,10.95-15.87,19.09-33.75,23.88-52.51,31.13-12.53,55.98-30.5,73.2-42.95,24.57-17.76,49.15-37.97,79.12-87.61,19.49-27.93,29.33-62.79,26.92-99.64-3.78-57.75-42.1-105.04-97.63-120.49-30.6-8.52-65.2-7.93-98.34.66,9.81-17.71,21.6-35.1,35.21-51.84,5.13-6.32,4.17-15.61-2.15-20.74-6.32-5.14-15.61-4.17-20.74,2.15-22.02,27.1-39.7,55.9-52.47,85.2-10.9,5.29-21.33,11.52-31.07,18.63-45.97,33.56-63.99,60.87-91.57,111.02-3.92,7.14-1.32,16.1,5.82,20.03,7.14,3.92,16.1,1.32,20.03-5.82,25.68-46.72,41.33-70.6,81.57-100.28-1.21,4.61-2.3,9.21-3.25,13.81-12.37,59.5-6.79,112.65,16.14,153.71,18.2,32.6,46.91,42.79,64.06,48.87l1.59.56c8.44,3.01,19.29,4.7,31.31,4.7,8.2,0,16.95-.79,25.86-2.48-2.54,1.92-5.09,3.79-7.66,5.65-32.01,23.15-85.57,61.89-154.37,49.58-30.57-5.47-59.65-19.98-86.43-43.15-6.15-5.33-15.47-4.65-20.8,1.5-5.33,6.16-4.66,15.47,1.5,20.8,30.41,26.31,65.17,43.55,100.53,49.88,10.86,1.94,21.38,2.82,31.55,2.82,13.15,0,25.7-1.47,37.59-3.98-4.39,10.67-10.83,22.51-20.32,34.03-7.65,9.29-29.31,32.06-65.05,42.8-32.31,9.7-59.87,4.22-73.42.08-7.78-2.38-16.03,2.01-18.41,9.8-2.38,7.79,2.01,16.03,9.8,18.41ZM290.36,535.15l-1.63-.58c-15.77-5.6-35.39-12.56-48.18-35.46-24.53-43.93-20.62-96.75-13.01-133.33,2.85-13.69,6.98-27.47,12.33-41.2,35.15-14.49,74.96-18.35,107.85-9.2,43.95,12.23,73.11,48.25,76.11,94,1.71,26.1-4.09,50.93-16,71.81-.78.82-1.48,1.74-2.07,2.77-1.31,2.27-2.61,4.48-3.9,6.63-9.73,13.83-22.4,25.5-37.53,34.04-24.74,13.97-57.67,16.34-73.98,10.53Z"/>
        <path class="cls-1" d="M549.1,204.17c7.81-2.3,12.28-10.5,9.98-18.31-2.3-7.81-10.49-12.28-18.31-9.98-15.85,4.67-38.9,14.39-58.63,34.19-18.49,18.55-27.24,39.18-31.24,56.53-65.78-74.86-158.63-125.77-264.71-137.26-8.1-.89-15.37,4.97-16.25,13.07-.88,8.1,4.97,15.37,13.07,16.25,194.26,21.04,340.74,184.48,340.74,380.17,0,65.31-16.46,126.85-45.45,180.69-34.17,12.95-69.41,24.1-104.83,33.14-33.97,8.67-76.36,18.2-133.14,23.15-62.6,5.45-120.5-.28-163.96-5.89-4.21-.54-8.44.75-11.63,3.55-3.18,2.8-5.01,6.84-5.01,11.08v137.23c0,1.54.24,3.02.67,4.41-.17.57-.31,1.15-.41,1.74-1.36,8.03,4.05,15.64,12.08,17,22.73,3.85,46.03,5.8,69.26,5.8,227.12,0,411.9-184.78,411.9-411.9,0-88.58-27.87-171.03-75.72-238.53,0-.15-.01-.31-.03-.46-.8-9.36-1.34-42,25.52-68.95,15.34-15.39,33.52-23.02,46.08-26.72ZM141.35,921.25c-17.43,0-34.9-1.18-52.1-3.52v-116.5c42.61,4.98,96.01,8.99,153.66,3.97,58.9-5.12,102.75-14.98,137.88-23.95,24.35-6.22,48.62-13.4,72.53-21.45-69.36,97.64-183.34,161.46-311.96,161.46Z"/>
      </g>
      <g>
        <g>
          <path class="cls-1" d="M688.38,273.77c4.81,0,9.21.8,13.22,2.4,4.01,1.6,7.45,3.98,10.32,7.14,2.87,3.16,5.14,7.09,6.79,11.81,1.65,4.71,2.47,10.18,2.47,16.4v14.71c0,6.22-.83,11.69-2.47,16.4-1.65,4.71-3.91,8.62-6.79,11.74-2.88,3.11-6.32,5.47-10.32,7.07-4.01,1.6-8.41,2.4-13.22,2.4s-9.21-.8-13.22-2.4c-4.01-1.6-7.45-3.96-10.32-7.07-2.88-3.11-5.14-7.02-6.79-11.74-1.65-4.71-2.47-10.18-2.47-16.4v-14.71c0-6.22.82-11.69,2.47-16.4,1.65-4.71,3.91-8.65,6.79-11.81,2.87-3.16,6.31-5.54,10.32-7.14,4.01-1.6,8.41-2.4,13.22-2.4ZM688.38,351.25c2.55,0,5-.47,7.35-1.41,2.35-.94,4.41-2.47,6.15-4.6,1.74-2.12,3.16-4.9,4.24-8.34,1.08-3.44,1.63-7.66,1.63-12.65v-10.75c0-5-.54-9.21-1.63-12.65-1.08-3.44-2.5-6.22-4.24-8.34-1.75-2.12-3.8-3.65-6.15-4.6-2.36-.94-4.81-1.41-7.35-1.41s-5,.47-7.35,1.41c-2.36.94-4.41,2.47-6.15,4.6-1.75,2.12-3.16,4.9-4.24,8.34-1.08,3.44-1.63,7.66-1.63,12.65v10.75c0,5,.54,9.21,1.63,12.65,1.08,3.44,2.5,6.22,4.24,8.34,1.74,2.12,3.79,3.65,6.15,4.6,2.35.94,4.81,1.41,7.35,1.41ZM773.78,324.11h-20.08v71.12h-14v-130.37h14v47.08h20.08v12.16Z"/>
          <path class="cls-1" d="M836.56,395.23v-44.68h-52.74v-11.88h119.62v11.88h-52.74v44.68h-14.14ZM859.46,315.34c-4.71-2.36-8.3-4.43-10.75-6.22-2.45-1.79-4.1-3.49-4.95-5.09h-.14c-.76,1.6-2.38,3.32-4.88,5.16-2.5,1.84-6.1,3.94-10.82,6.29-3.87,1.89-8.18,3.96-12.94,6.22-4.76,2.26-10.11,4.52-16.05,6.79l-5.51-11.45c5.28-1.98,10.46-4.12,15.55-6.43,5.09-2.31,9.9-4.69,14.42-7.14,2.83-1.51,5.11-3.04,6.86-4.6,1.74-1.56,3.09-3.13,4.03-4.74.94-1.6,1.58-3.23,1.91-4.88.33-1.65.5-3.32.5-5.02h-37.47v-11.88h89.08v11.88h-37.61c0,1.7.16,3.37.5,5.02.33,1.65.94,3.28,1.84,4.88.9,1.6,2.21,3.18,3.96,4.74,1.74,1.56,4.03,3.09,6.86,4.6,4.52,2.45,9.33,4.83,14.42,7.14,5.09,2.31,10.27,4.45,15.55,6.43l-5.37,11.31c-5.94-2.26-11.29-4.52-16.05-6.79-4.76-2.26-9.07-4.33-12.94-6.22Z"/>
          <path class="cls-1" d="M971.59,289.46h-36.05v58.68h7.21c3.2,0,6.22-.05,9.05-.14,2.83-.09,5.61-.23,8.34-.42,2.73-.19,5.56-.45,8.48-.78,2.92-.33,6.03-.78,9.33-1.34l1.41,11.74c-3.68.57-7.12,1.06-10.32,1.48s-6.36.76-9.47.99c-3.11.24-6.25.4-9.4.5-3.16.09-6.57.14-10.25.14h-18.52v-83h50.19v12.16ZM1029.7,395.23h-13.72v-72.82h-15.41v66.46h-13.71v-121.32h13.71v42.7h15.41v-45.39h13.72v130.37Z"/>
          <path class="cls-1" d="M1124.58,290.31h-74.8v-11.74h30.54v-15.41h13.86v15.41h30.4v11.74ZM1087.25,344.04c-5.28,0-9.83-.66-13.64-1.98-3.82-1.32-6.95-3.02-9.4-5.09-2.45-2.07-4.29-4.43-5.51-7.07-1.23-2.64-1.84-5.32-1.84-8.06v-4.52c0-2.73.61-5.42,1.84-8.06,1.22-2.64,3.06-5.02,5.51-7.14,2.45-2.12,5.58-3.82,9.4-5.09,3.82-1.27,8.36-1.91,13.64-1.91s9.71.66,13.57,1.98c3.86,1.32,7.02,3.02,9.47,5.09,2.45,2.07,4.29,4.45,5.51,7.14,1.22,2.69,1.84,5.35,1.84,7.99v4.52c0,2.74-.61,5.42-1.84,8.06-1.23,2.64-3.06,5-5.51,7.07-2.45,2.07-5.61,3.77-9.47,5.09-3.87,1.32-8.39,1.98-13.57,1.98ZM1068.73,352.95h82.43v43.55h-14v-31.53h-68.44v-12.02ZM1087.25,332.87c2.83,0,5.32-.35,7.49-1.06,2.17-.71,3.96-1.6,5.37-2.69,1.41-1.08,2.47-2.33,3.18-3.75.71-1.41,1.06-2.83,1.06-4.24v-3.11c0-1.41-.35-2.83-1.06-4.24s-1.77-2.66-3.18-3.75c-1.41-1.08-3.18-1.98-5.3-2.69-2.12-.71-4.64-1.06-7.56-1.06s-5.44.35-7.56,1.06c-2.12.71-3.89,1.6-5.3,2.69-1.41,1.08-2.47,2.33-3.18,3.75s-1.06,2.83-1.06,4.24v3.11c0,1.41.35,2.83,1.06,4.24.71,1.41,1.77,2.66,3.18,3.75,1.41,1.08,3.2,1.98,5.37,2.69,2.17.71,4.67,1.06,7.49,1.06ZM1169.68,311.24h-18.52v34.92h-13.86v-81.3h13.86v34.22h18.52v12.16Z"/>
          <path class="cls-1" d="M1300.05,365.96v11.88h-119.62v-11.88h27.15v-45.1h13.71v45.1h17.25v-45.1h13.71v45.1h47.79ZM1283.79,276.46v17.11c0,6.32-.07,12.02-.21,17.11-.14,5.09-.38,9.88-.71,14.35-.33,4.48-.76,8.77-1.27,12.87-.52,4.1-1.16,8.37-1.91,12.8l-13.86-1.7c1.79-8.95,2.92-17.41,3.39-25.38.47-7.96.71-16.33.71-25.1v-9.9h-74.8v-12.16h88.65Z"/>
          <path class="cls-1" d="M1391.67,331.74c-.47,1.41-1.25,2.9-2.33,4.45-1.08,1.56-2.33,3.18-3.75,4.88-2.83,3.39-5.99,6.98-9.47,10.75-3.49,3.77-7.12,7.59-10.89,11.45l-9.47-9.47c4.24-4.05,8.2-8.01,11.88-11.88,3.68-3.86,7.02-7.78,10.04-11.74,2.83-3.68,4.71-7.3,5.66-10.89.94-3.58,1.41-7.4,1.41-11.45v-18.66h-22.34v-11.74h56.84v11.74h-20.93v18.66c0,4.05.54,7.83,1.63,11.31,1.08,3.49,3.04,7.07,5.87,10.75,3.02,3.87,6.13,7.54,9.33,11.03,3.2,3.49,6.93,7.26,11.17,11.31l-9.47,9.33c-3.77-3.77-7.19-7.28-10.25-10.53-3.06-3.25-6.01-6.57-8.84-9.97-1.41-1.7-2.64-3.32-3.68-4.88-1.04-1.56-1.79-3.04-2.26-4.45h-.14ZM1432.53,267.55h13.71v121.32h-13.71v-69.14h-19.79v-12.16h19.79v-40.02ZM1472.12,395.23h-13.72v-130.37h13.72v130.37Z"/>
          <path class="cls-1" d="M1558.37,314.07v31.25h14.42v11.88h-14.42v21.92h-13.86v-21.92h-50.9v-10.46l47.93-69.57h15.41l-46.94,68.15h34.5v-31.25h13.86Z"/>
          <path class="cls-1" d="M1655.22,314.07v31.25h14.42v11.88h-14.42v21.92h-13.86v-21.92h-50.9v-10.46l47.93-69.57h15.41l-46.94,68.15h34.5v-31.25h13.86Z"/>
          <path class="cls-1" d="M1740.06,289.46h-36.06v58.68h7.21c3.2,0,6.22-.05,9.05-.14,2.83-.09,5.61-.23,8.34-.42,2.73-.19,5.56-.45,8.48-.78,2.92-.33,6.03-.78,9.33-1.34l1.41,11.74c-3.68.57-7.12,1.06-10.32,1.48-3.21.42-6.36.76-9.47.99-3.11.24-6.25.4-9.4.5-3.16.09-6.58.14-10.25.14h-18.52v-83h50.2v12.16ZM1798.17,395.23h-13.72v-72.82h-15.41v66.46h-13.71v-121.32h13.71v42.7h15.41v-45.39h13.72v130.37Z"/>
          <path class="cls-1" d="M1982.27,330.19v11.88h-119.62v-11.88h52.74v-13.29h14.14v13.29h52.74ZM1922.32,302.47c-1.04,1.89-2.88,3.58-5.51,5.09-2.64,1.51-5.47,2.83-8.48,3.96-5.37,2.07-10.58,3.98-15.62,5.73-5.04,1.75-10.16,3.42-15.34,5.02l-4.38-11.31c4.81-1.41,9.31-2.83,13.5-4.24,4.19-1.41,8.65-3.06,13.36-4.95,9.8-3.77,14.99-8.48,15.55-14.14h-37.61v-11.59h37.61v-12.87h14v12.87h37.75v11.59h-37.75c.19,2.83,1.58,5.37,4.17,7.64,2.59,2.26,6.43,4.43,11.52,6.5,6.5,2.74,15.46,5.8,26.87,9.19l-4.38,11.31c-5.28-1.6-10.42-3.27-15.41-5.02-5-1.74-10.13-3.65-15.41-5.73-3.02-1.13-5.89-2.45-8.62-3.96-2.74-1.51-4.62-3.2-5.66-5.09h-.14ZM1922.46,399.19c-6.22,0-11.85-.59-16.9-1.77-5.04-1.18-9.33-2.81-12.87-4.88-3.54-2.07-6.25-4.5-8.13-7.28-1.89-2.78-2.83-5.82-2.83-9.12v-4.52c0-3.3.94-6.36,2.83-9.19,1.88-2.83,4.59-5.25,8.13-7.28,3.54-2.03,7.82-3.63,12.87-4.81,5.04-1.18,10.67-1.77,16.9-1.77s11.83.59,16.83,1.77c5,1.18,9.26,2.78,12.8,4.81,3.54,2.03,6.27,4.45,8.2,7.28,1.93,2.83,2.9,5.89,2.9,9.19v4.52c0,3.2-.94,6.22-2.83,9.05-1.89,2.83-4.59,5.28-8.13,7.35-3.54,2.07-7.83,3.7-12.87,4.88-5.04,1.18-10.67,1.77-16.9,1.77ZM1922.46,360.02c-3.96,0-7.59.35-10.89,1.06-3.3.71-6.13,1.63-8.48,2.76-2.36,1.13-4.2,2.45-5.51,3.96-1.32,1.51-1.98,3.06-1.98,4.67v2.83c0,1.6.66,3.16,1.98,4.67,1.32,1.51,3.16,2.83,5.51,3.96,2.36,1.13,5.18,2.05,8.48,2.76,3.3.71,6.93,1.06,10.89,1.06s7.59-.35,10.89-1.06c3.3-.71,6.13-1.63,8.48-2.76,2.36-1.13,4.19-2.45,5.51-3.96,1.32-1.51,1.98-3.06,1.98-4.67v-2.83c0-1.6-.66-3.16-1.98-4.67-1.32-1.51-3.16-2.83-5.51-3.96-2.36-1.13-5.18-2.05-8.48-2.76-3.3-.71-6.93-1.06-10.89-1.06Z"/>
          <path class="cls-1" d="M2071.2,290.31h-74.8v-11.74h30.54v-15.41h13.86v15.41h30.4v11.74ZM2033.87,344.04c-5.28,0-9.83-.66-13.64-1.98-3.82-1.32-6.95-3.02-9.4-5.09-2.45-2.07-4.29-4.43-5.51-7.07-1.23-2.64-1.84-5.32-1.84-8.06v-4.52c0-2.73.61-5.42,1.84-8.06,1.22-2.64,3.06-5.02,5.51-7.14,2.45-2.12,5.58-3.82,9.4-5.09,3.82-1.27,8.36-1.91,13.64-1.91s9.71.66,13.57,1.98c3.86,1.32,7.02,3.02,9.47,5.09,2.45,2.07,4.29,4.45,5.51,7.14,1.22,2.69,1.84,5.35,1.84,7.99v4.52c0,2.74-.61,5.42-1.84,8.06-1.23,2.64-3.06,5-5.51,7.07-2.45,2.07-5.61,3.77-9.47,5.09-3.87,1.32-8.39,1.98-13.57,1.98ZM2015.35,352.95h82.43v43.55h-14v-31.53h-68.44v-12.02ZM2033.87,332.87c2.83,0,5.32-.35,7.49-1.06,2.17-.71,3.96-1.6,5.37-2.69,1.41-1.08,2.47-2.33,3.18-3.75.71-1.41,1.06-2.83,1.06-4.24v-3.11c0-1.41-.35-2.83-1.06-4.24s-1.77-2.66-3.18-3.75c-1.41-1.08-3.18-1.98-5.3-2.69-2.12-.71-4.64-1.06-7.56-1.06s-5.44.35-7.56,1.06c-2.12.71-3.89,1.6-5.3,2.69-1.41,1.08-2.47,2.33-3.18,3.75s-1.06,2.83-1.06,4.24v3.11c0,1.41.35,2.83,1.06,4.24.71,1.41,1.77,2.66,3.18,3.75,1.41,1.08,3.2,1.98,5.37,2.69,2.17.71,4.67,1.06,7.49,1.06ZM2116.31,311.24h-18.52v34.92h-13.86v-81.3h13.86v34.22h18.52v12.16Z"/>
          <path class="cls-1" d="M2159.57,312.94c-.28,1.13-1.06,2.5-2.33,4.1-1.27,1.6-2.52,3.06-3.75,4.38-1.89,2.17-4.64,4.97-8.27,8.41-3.63,3.44-7.42,6.91-11.38,10.39l-8.91-9.47c4.43-3.96,8.51-7.71,12.23-11.24,3.72-3.53,6.53-6.48,8.41-8.84,1.51-1.88,2.71-3.63,3.61-5.23.89-1.6,1.6-3.2,2.12-4.81.52-1.6.85-3.27.99-5.02.14-1.74.21-3.75.21-6.01v-18.1h13.57v17.25c0,2.17.09,4.15.28,5.94.19,1.79.54,3.56,1.06,5.3.52,1.75,1.27,3.46,2.26,5.16.99,1.7,2.29,3.49,3.89,5.37,2.26,2.64,4.95,5.33,8.06,8.06,3.11,2.73,6.36,5.47,9.76,8.2l-8.77,9.33c-3.21-2.73-6.17-5.37-8.91-7.92-2.74-2.54-5.04-4.76-6.93-6.65-1.79-1.79-3.32-3.42-4.59-4.88-1.27-1.46-2.1-2.71-2.47-3.75h-.14ZM2156.89,369.07c0-3.49.94-6.69,2.83-9.61,1.88-2.92,4.59-5.47,8.13-7.64,3.54-2.17,7.82-3.86,12.87-5.09,5.04-1.22,10.67-1.84,16.9-1.84s11.83.61,16.83,1.84c5,1.23,9.26,2.92,12.8,5.09,3.54,2.17,6.27,4.74,8.2,7.71,1.93,2.97,2.9,6.15,2.9,9.54v5.66c0,3.39-.97,6.57-2.9,9.54-1.93,2.97-4.67,5.54-8.2,7.71-3.53,2.17-7.8,3.86-12.8,5.09-5,1.22-10.6,1.84-16.83,1.84s-11.86-.61-16.9-1.84c-5.04-1.23-9.33-2.92-12.87-5.09-3.54-2.17-6.25-4.71-8.13-7.64-1.89-2.92-2.83-6.13-2.83-9.61v-5.66ZM2224.62,369.92c0-1.7-.66-3.37-1.98-5.02-1.32-1.65-3.16-3.11-5.51-4.38-2.36-1.27-5.21-2.28-8.55-3.04-3.35-.75-7-1.13-10.96-1.13s-7.61.38-10.96,1.13c-3.35.76-6.2,1.77-8.55,3.04-2.36,1.27-4.2,2.73-5.51,4.38-1.32,1.65-1.98,3.32-1.98,5.02v3.82c0,1.79.66,3.51,1.98,5.16,1.32,1.65,3.16,3.11,5.51,4.38,2.36,1.27,5.21,2.28,8.55,3.04,3.34.75,7,1.13,10.96,1.13s7.61-.38,10.96-1.13c3.34-.76,6.2-1.77,8.55-3.04,2.36-1.27,4.19-2.74,5.51-4.38,1.32-1.65,1.98-3.32,1.98-5.02v-3.96ZM2224.05,264.86h13.43v78.33h-13.43v-36.76h-13.29v31.67h-13.29v-71.55h13.29v27.85h13.29v-29.55Z"/>
          <path class="cls-1" d="M2349.04,368.36c-5.94.57-11.69,1.04-17.25,1.41-5.56.38-11.62.71-18.17.99-6.55.28-13.93.47-22.13.57-8.2.1-17.86.14-28.99.14v-11.88h19.37c5.84,0,11.31-.09,16.4-.28v-12.87c-4.05-.47-7.66-1.39-10.82-2.76-3.16-1.37-5.85-3.04-8.06-5.02-2.22-1.98-3.89-4.19-5.02-6.65-1.13-2.45-1.7-4.95-1.7-7.49v-5.37c0-2.83.71-5.58,2.12-8.27s3.49-5.07,6.22-7.14c2.73-2.07,6.06-3.72,9.97-4.95,3.91-1.22,8.36-1.84,13.36-1.84s9.45.61,13.36,1.84c3.91,1.23,7.23,2.88,9.97,4.95,2.73,2.07,4.81,4.45,6.22,7.14s2.12,5.44,2.12,8.27v5.37c0,5-2.08,9.54-6.22,13.64-4.15,4.1-10.04,6.77-17.67,7.99v12.73c6.79-.19,12.98-.49,18.59-.92,5.61-.42,11.33-.92,17.18-1.48l1.13,11.88ZM2341.41,291.59h-75.36v-12.02h31.25v-15.7h13.86v15.7h30.26v12.02ZM2304.36,335.28c2.92,0,5.51-.33,7.78-.99,2.26-.66,4.17-1.56,5.73-2.69,1.56-1.13,2.71-2.4,3.46-3.82.75-1.41,1.13-2.87,1.13-4.38v-3.11c0-1.51-.4-2.97-1.2-4.38-.8-1.41-1.96-2.69-3.46-3.82-1.51-1.13-3.39-2.03-5.66-2.69-2.26-.66-4.86-.99-7.78-.99s-5.63.33-7.85.99c-2.22.66-4.1,1.56-5.66,2.69-1.56,1.13-2.71,2.4-3.46,3.82-.75,1.41-1.13,2.88-1.13,4.38v3.11c0,1.51.4,2.97,1.2,4.38.8,1.41,1.96,2.69,3.46,3.82,1.51,1.13,3.39,2.03,5.66,2.69,2.26.66,4.85.99,7.78.99ZM2355.54,395.23v-130.37h13.86v130.37h-13.86Z"/>
        </g>
        <g>
          <path class="cls-2" d="M1815.26,686.63c0,40.73-29.52,65.53-75.56,65.53s-75.56-24.79-75.56-65.53v-119.54c0-40.73,29.52-65.53,75.56-65.53s75.56,24.79,75.56,65.53v119.54ZM1785.75,575.64c0-30.7-11.81-47.52-46.05-47.52s-46.05,16.82-46.05,47.52v102.42c0,30.7,11.81,47.52,46.05,47.52s46.05-16.82,46.05-47.52v-102.42ZM1848.91,768.68v-266.83h29.52v99.18h34.83v27.15h-34.83v140.5h-29.52Z"/>
          <path class="cls-2" d="M2256.54,651.21l-33.35-101.54c-1.48-4.72-2.36-6.2-6.49-6.2h-20.37c-4.13,0-5.02,1.77-6.49,6.2l-35.12,101.54h-30.99l37.19-107.74h-36.3v-26.57h67.3v-30.11h29.52v30.11h70.25v26.57h-39.26l35.12,107.74h-30.99ZM2147.92,768.68v-80.29c0-12.4,5.31-17.71,17.71-17.71h186.84v75.86c0,15.35-6.79,22.14-22.14,22.14h-182.41ZM2322.96,697.25h-145.52v44.87h145.52v-44.87ZM2322.96,657.11v-155.26h29.52v155.26h-29.52Z"/>
        </g>
      </g>
    </g>
  </g>
</svg>