<?xml version="1.0" encoding="UTF-8"?>
<svg xmlns="http://www.w3.org/2000/svg" version="1.1" viewBox="0 0 1920 1080">
  <defs>
    <style>
      .cls-1 {
        fill: #f9f9f9;
      }
    </style>
  </defs>
  <!-- Generator: Adobe Illustrator 28.7.3, SVG Export Plug-In . SVG Version: 1.2.0 Build 164)  -->
  <g>
    <g id="_레이어_1" data-name="레이어_1">
      <g>
        <circle class="cls-1" cx="386.66" cy="360.87" r="206.67"/>
        <path class="cls-1" d="M267.63,925.8c-34.06,0-60.52-1.19-73.02-4.21-16.19-3.9-22.23-15.5-22.47-25.05-.67-25.48,15.52-32.65,192.46-85.25,49.95-14.85,116.75-34.71,160.98-50.46-78.76-6.32-235.5-6.74-379.33-2.62-.22,0-.45,0-.67,0-12.46,0-22.74-9.92-23.1-22.46-.36-12.76,9.69-23.4,22.45-23.77,1.06-.03,107.74-2.99,215.36-2.54,229.35,1.05,239.09,15.98,247.69,29.15,5.13,7.85,5.79,17.6,1.76,26.08-10.07,21.26-49.1,36.56-231.96,90.92-24.6,7.31-52.66,15.65-78.69,23.7,92.88-1.82,231.69-9.66,327.04-16.36,12.62-.92,23.78,8.7,24.68,21.44.9,12.73-8.7,23.78-21.44,24.68-30,2.11-242.39,16.74-361.73,16.74ZM570.68,740.93h0Z"/>
        <path class="cls-1" d="M390.61,665.67c-53.97,0-108.46-6.46-151.08-19.3-12.23-3.68-19.15-16.58-15.46-28.8,3.68-12.23,16.55-19.16,28.8-15.46,74.86,22.56,194.9,23.16,267.61,1.35,12.25-3.68,25.12,3.27,28.79,15.5,3.67,12.23-3.27,25.12-15.5,28.79-39.9,11.97-91.29,17.93-143.16,17.93Z"/>
      </g>
      <g>
        <g>
          <path class="cls-1" d="M839.31,360.21c0,4.76-1.12,8.45-3.37,11.08-2.25,2.63-5.37,3.94-9.38,3.94s-7.13-1.31-9.38-3.94c-2.25-2.62-3.37-6.32-3.37-11.08v-5.33c0-4.72,1.12-8.39,3.37-11.02,2.25-2.62,5.37-3.94,9.38-3.94s7.13,1.32,9.38,3.97c2.25,2.64,3.37,6.33,3.37,11.05v5.27ZM835.4,355.62c0-2.15-.21-3.98-.62-5.5-.42-1.51-1.01-2.75-1.78-3.71-.77-.96-1.71-1.66-2.8-2.1-1.1-.43-2.3-.65-3.63-.65s-2.53.22-3.63.65c-1.1.43-2.03,1.13-2.8,2.1-.77.96-1.37,2.2-1.78,3.71-.42,1.51-.62,3.34-.62,5.5v3.91c0,2.15.21,3.99.62,5.52.42,1.53,1.01,2.78,1.78,3.74.77.96,1.71,1.66,2.8,2.1,1.1.43,2.3.65,3.63.65s2.53-.22,3.63-.65c1.1-.43,2.03-1.13,2.8-2.1.77-.96,1.37-2.21,1.78-3.74.42-1.53.62-3.37.62-5.52v-3.91ZM852.23,355.68h8.61v3.57h-8.61v28.78h-4.02v-51.78h4.02v19.43Z"/>
          <path class="cls-1" d="M912.56,366.04v3.46h-21.75v18.52h-4.02v-18.52h-21.81v-3.46h47.59ZM895.45,355.62c-3.78-1.89-5.99-3.47-6.63-4.76h-.06c-.6,1.28-2.81,2.89-6.63,4.82-1.55.76-3.31,1.6-5.27,2.52-1.96.93-4.14,1.84-6.52,2.75l-1.76-3.17c2.11-.79,4.23-1.66,6.34-2.61,2.11-.94,4.08-1.89,5.89-2.83,1.36-.72,2.44-1.41,3.23-2.07.79-.66,1.39-1.34,1.78-2.04.4-.7.65-1.45.77-2.24s.17-1.66.17-2.61v-.51h-15.69v-3.4h35.35v3.4h-15.64v.51c0,.94.05,1.81.14,2.61.09.79.34,1.54.74,2.24.4.7.99,1.38,1.78,2.04.79.66,1.87,1.35,3.23,2.07,1.81.94,3.76,1.88,5.83,2.8,2.08.93,4.17,1.78,6.29,2.58l-1.7,3.12c-2.15-.83-4.22-1.7-6.2-2.61s-3.81-1.78-5.47-2.61Z"/>
          <path class="cls-1" d="M939.92,341.17v3.63h-15.52v25.49h2.38c1.55,0,3-.02,4.36-.06,1.36-.04,2.68-.09,3.97-.17,1.28-.08,2.55-.19,3.8-.34,1.25-.15,2.51-.34,3.8-.57l.45,3.57c-2.72.45-5.35.76-7.9.93s-5.26.25-8.13.25h-6.74v-32.75h19.54ZM950.74,354.88h7.53v-18.64h3.97v51.78h-3.97v-29.57h-7.53v27.02h-3.97v-48.15h3.97v17.56Z"/>
          <path class="cls-1" d="M988.36,342.08h12.97v3.46h-29.8v-3.46h12.86v-6.57h3.97v6.57ZM986.38,367.52c-1.81,0-3.45-.24-4.9-.71-1.45-.47-2.7-1.1-3.74-1.9s-1.83-1.71-2.38-2.75c-.55-1.04-.82-2.14-.82-3.31v-2.04c0-1.17.27-2.27.82-3.31.55-1.04,1.34-1.96,2.38-2.75s2.29-1.42,3.74-1.9c1.45-.47,3.09-.71,4.9-.71s3.45.24,4.9.71c1.45.47,2.7,1.1,3.74,1.9,1.04.79,1.83,1.71,2.38,2.75.55,1.04.82,2.14.82,3.31v2.04c0,1.17-.27,2.28-.82,3.31-.55,1.04-1.34,1.96-2.38,2.75-1.04.79-2.29,1.43-3.74,1.9-1.45.47-3.09.71-4.9.71ZM986.38,351.49c-1.21,0-2.3.14-3.29.42-.98.28-1.82.68-2.52,1.19-.7.51-1.25,1.1-1.64,1.76-.4.66-.59,1.37-.59,2.12v1.7c0,.76.2,1.46.59,2.12.4.66.94,1.25,1.64,1.76.7.51,1.54.91,2.52,1.19s2.08.42,3.29.42,2.26-.14,3.26-.42c1-.28,1.85-.68,2.55-1.19.7-.51,1.25-1.1,1.64-1.76.4-.66.59-1.37.59-2.12v-1.7c0-.75-.2-1.46-.59-2.12-.4-.66-.95-1.25-1.64-1.76-.7-.51-1.55-.91-2.55-1.19-1-.28-2.09-.42-3.26-.42ZM979.18,371.48h32.46v17h-3.97v-13.48h-28.5v-3.51ZM1011.64,350.41h7.93v3.51h-7.93v14.5h-3.97v-32.18h3.97v14.16Z"/>
          <path class="cls-1" d="M1035.32,377.26v-18.98h4.02v18.98h8.78v-18.98h4.02v18.98h19.32v3.46h-47.59v-3.46h11.44ZM1059,370.07c.68-3.51,1.14-6.93,1.39-10.25.25-3.32.37-6.83.37-10.54v-4.7h-30.88v-3.51h34.95v6.12c0,2.38-.03,4.59-.08,6.63-.06,2.04-.16,3.99-.31,5.86-.15,1.87-.33,3.69-.54,5.47-.21,1.78-.48,3.57-.82,5.38l-4.08-.45Z"/>
          <path class="cls-1" d="M1096.79,341.34h22.6v3.51h-9.12v7.71c0,1.32.05,2.46.14,3.4.09.94.26,1.81.51,2.61.25.79.59,1.56,1.05,2.29s1.04,1.56,1.76,2.46c.94,1.17,2.08,2.48,3.4,3.94,1.32,1.46,2.78,2.97,4.36,4.56l-2.61,2.55c-.64-.6-1.29-1.27-1.96-2.01-.66-.74-1.32-1.46-1.98-2.18-.66-.72-1.28-1.42-1.87-2.1-.59-.68-1.12-1.28-1.62-1.81-.83-.94-1.52-1.82-2.07-2.63-.55-.81-.88-1.37-.99-1.67h-.06c-.08.3-.35.83-.82,1.59-.47.76-1.14,1.64-2.01,2.66-1.06,1.21-2.25,2.54-3.57,3.99-1.32,1.45-2.89,3.07-4.7,4.84l-2.66-2.66c.83-.79,1.66-1.6,2.49-2.44.83-.83,1.62-1.64,2.35-2.44.74-.79,1.42-1.54,2.04-2.24.62-.7,1.14-1.33,1.56-1.9.68-.87,1.24-1.68,1.67-2.44.43-.75.76-1.55.99-2.38.23-.83.39-1.73.48-2.69.09-.96.14-2.07.14-3.31v-7.71h-9.52v-3.51ZM1125.79,353.75v-16.43h3.97v48.15h-3.97v-28.1h-9.18v-3.63h9.18ZM1139.84,388.03h-3.97v-51.78h3.97v51.78Z"/>
          <path class="cls-1" d="M1174.29,356.24v12.86h6v3.63h-6v9.06h-3.97v-9.06h-20.45v-3.63l19.83-28.16h4.53l-19.77,28.16h15.86v-12.86h3.97Z"/>
          <path class="cls-1" d="M1212.53,356.24v12.86h6v3.63h-6v9.06h-3.97v-9.06h-20.45v-3.63l19.83-28.16h4.53l-19.77,28.16h15.86v-12.86h3.97Z"/>
          <path class="cls-1" d="M1246.69,341.17v3.63h-15.52v25.49h2.38c1.55,0,3-.02,4.36-.06,1.36-.04,2.68-.09,3.96-.17,1.28-.08,2.55-.19,3.8-.34,1.25-.15,2.51-.34,3.8-.57l.45,3.57c-2.72.45-5.35.76-7.9.93-2.55.17-5.26.25-8.13.25h-6.74v-32.75h19.54ZM1257.51,354.88h7.54v-18.64h3.97v51.78h-3.97v-29.57h-7.54v27.02h-3.96v-48.15h3.96v17.56Z"/>
          <path class="cls-1" d="M1317.9,362.65v-5.89h3.97v5.89h21.81v3.4h-47.59v-3.4h21.81ZM1319.82,350.47c-.6,1.17-2.7,2.47-6.29,3.91-1.59.64-3.42,1.32-5.5,2.04-2.08.72-4.21,1.42-6.4,2.1l-1.59-3.17c2.57-.79,4.84-1.53,6.83-2.21,1.98-.68,3.69-1.3,5.13-1.87,1.17-.45,2.13-.91,2.89-1.36.75-.45,1.35-.93,1.78-1.44.43-.51.74-1.06.91-1.64.17-.58.25-1.24.25-1.95v-.57h-15.69v-3.4h15.69v-5.38h4.02v5.38h15.75v3.4h-15.75v.57c0,.72.08,1.37.25,1.95.17.59.47,1.13.91,1.64.43.51,1.02.99,1.76,1.44s1.69.91,2.86,1.36c1.44.57,3.17,1.19,5.21,1.87,2.04.68,4.29,1.4,6.74,2.15l-1.47,3.17c-2.38-.75-4.51-1.45-6.4-2.1-1.89-.64-3.74-1.32-5.55-2.04-3.51-1.4-5.61-2.68-6.29-3.85h-.06ZM1319.88,369.95c2.11,0,4.14.19,6.09.57,1.94.38,3.65.93,5.13,1.67,1.47.74,2.65,1.65,3.54,2.75.89,1.1,1.33,2.38,1.33,3.85v1.81c0,1.47-.44,2.76-1.33,3.85-.89,1.09-2.07,2.01-3.54,2.75s-3.18,1.29-5.13,1.67c-1.95.38-3.98.57-6.09.57s-4.15-.19-6.09-.57c-1.95-.38-3.65-.94-5.13-1.67-1.47-.74-2.65-1.65-3.54-2.75-.89-1.1-1.33-2.38-1.33-3.85v-1.81c0-1.47.44-2.77,1.33-3.88.89-1.11,2.07-2.04,3.54-2.78,1.47-.74,3.18-1.28,5.13-1.64,1.94-.36,3.97-.54,6.09-.54ZM1319.88,386.04c1.51,0,3-.12,4.48-.37,1.47-.25,2.78-.6,3.94-1.08,1.15-.47,2.08-1.07,2.78-1.79.7-.72,1.05-1.53,1.05-2.44v-1.36c0-.91-.35-1.71-1.05-2.41-.7-.7-1.62-1.29-2.78-1.78-1.15-.49-2.46-.86-3.94-1.1-1.47-.25-2.97-.37-4.48-.37s-3.05.12-4.5.37c-1.45.25-2.76.61-3.91,1.1-1.15.49-2.08,1.09-2.78,1.78-.7.7-1.05,1.5-1.05,2.41v1.36c0,.91.35,1.72,1.05,2.44.7.72,1.62,1.31,2.78,1.79,1.15.47,2.46.83,3.91,1.08,1.45.25,2.95.37,4.5.37Z"/>
          <path class="cls-1" d="M1366.5,342.08h12.97v3.46h-29.8v-3.46h12.86v-6.57h3.97v6.57ZM1364.52,367.52c-1.81,0-3.45-.24-4.9-.71-1.45-.47-2.7-1.1-3.74-1.9s-1.83-1.71-2.38-2.75c-.55-1.04-.82-2.14-.82-3.31v-2.04c0-1.17.27-2.27.82-3.31.55-1.04,1.34-1.96,2.38-2.75s2.29-1.42,3.74-1.9c1.45-.47,3.09-.71,4.9-.71s3.45.24,4.9.71c1.45.47,2.7,1.1,3.74,1.9,1.04.79,1.83,1.71,2.38,2.75.55,1.04.82,2.14.82,3.31v2.04c0,1.17-.27,2.28-.82,3.31-.55,1.04-1.34,1.96-2.38,2.75-1.04.79-2.29,1.43-3.74,1.9-1.45.47-3.09.71-4.9.71ZM1364.52,351.49c-1.21,0-2.3.14-3.29.42-.98.28-1.82.68-2.52,1.19-.7.51-1.25,1.1-1.64,1.76-.4.66-.59,1.37-.59,2.12v1.7c0,.76.2,1.46.59,2.12.4.66.94,1.25,1.64,1.76.7.51,1.54.91,2.52,1.19s2.08.42,3.29.42,2.26-.14,3.26-.42c1-.28,1.85-.68,2.55-1.19.7-.51,1.25-1.1,1.64-1.76.4-.66.59-1.37.59-2.12v-1.7c0-.75-.2-1.46-.59-2.12-.4-.66-.95-1.25-1.64-1.76-.7-.51-1.55-.91-2.55-1.19-1-.28-2.09-.42-3.26-.42ZM1357.33,371.48h32.46v17h-3.97v-13.48h-28.5v-3.51ZM1389.79,350.41h7.93v3.51h-7.93v14.5h-3.97v-32.18h3.97v14.16Z"/>
          <path class="cls-1" d="M1424.63,364.12c-1.1-.91-2.19-1.87-3.29-2.89-1.1-1.02-2.08-1.96-2.95-2.83-2.12-2.04-3.27-3.38-3.46-4.02h-.06c-.08.3-.34.78-.79,1.44-.45.66-1.1,1.45-1.93,2.35-.45.49-1.01,1.07-1.67,1.73s-1.36,1.34-2.1,2.04c-.74.7-1.48,1.39-2.24,2.07-.76.68-1.44,1.27-2.04,1.76l-2.55-2.66c.64-.53,1.33-1.11,2.07-1.76.74-.64,1.45-1.29,2.15-1.95.7-.66,1.38-1.33,2.04-2.01.66-.68,1.24-1.3,1.73-1.87.68-.79,1.24-1.53,1.67-2.21.43-.68.77-1.37,1.02-2.07.25-.7.41-1.44.48-2.24.08-.79.11-1.74.11-2.83v-7.25h3.97v7.19c0,1.06.04,1.97.11,2.75.08.77.23,1.5.45,2.18s.56,1.33.99,1.96c.43.62,1.03,1.33,1.79,2.12.87.91,1.91,1.93,3.12,3.06,1.21,1.13,2.49,2.25,3.85,3.34l-2.49,2.61ZM1430.07,389.39c-2.12,0-4.14-.22-6.06-.65-1.93-.43-3.62-1.06-5.1-1.87-1.47-.81-2.64-1.8-3.51-2.97-.87-1.17-1.3-2.49-1.3-3.97v-2.04c0-1.51.43-2.85,1.3-4.02.87-1.17,2.04-2.16,3.51-2.97,1.47-.81,3.17-1.42,5.1-1.84,1.93-.42,3.95-.62,6.06-.62s4.13.22,6.06.65c1.93.43,3.62,1.06,5.1,1.87,1.47.81,2.64,1.8,3.51,2.97s1.3,2.49,1.3,3.97v2.04c0,1.47-.43,2.79-1.3,3.97-.87,1.17-2.04,2.16-3.51,2.97-1.47.81-3.17,1.44-5.1,1.87-1.93.43-3.95.65-6.06.65ZM1430.07,371.82c-1.51,0-2.99.13-4.45.4-1.46.26-2.75.66-3.88,1.19-1.13.53-2.05,1.18-2.75,1.95-.7.77-1.05,1.67-1.05,2.69v1.7c0,1.02.35,1.92,1.05,2.69s1.62,1.43,2.75,1.96c1.13.53,2.43.92,3.88,1.19,1.45.26,2.94.4,4.45.4s2.99-.13,4.45-.4c1.45-.26,2.75-.66,3.88-1.19,1.13-.53,2.05-1.18,2.75-1.96.7-.77,1.05-1.67,1.05-2.69v-1.7c0-1.02-.35-1.92-1.05-2.69-.7-.77-1.62-1.42-2.75-1.95-1.13-.53-2.43-.93-3.88-1.19-1.45-.26-2.94-.4-4.45-.4ZM1434.26,348.94h7.59v-12.69h3.91v31.04h-3.91v-14.79h-7.59v12.75h-3.91v-28.33h3.91v12.01Z"/>
          <path class="cls-1" d="M1491.08,376.86c-2.34.23-4.66.42-6.94.59-2.29.17-4.76.31-7.42.43-2.66.11-5.63.19-8.89.23-3.27.04-7.07.06-11.42.06v-3.51h7.96c2.44,0,4.73-.04,6.88-.11v-6.46c-1.59-.15-3.04-.48-4.36-.99-1.32-.51-2.46-1.16-3.4-1.95-.94-.79-1.67-1.67-2.18-2.63-.51-.96-.76-1.97-.76-3.03v-2.15c0-1.13.3-2.23.91-3.29.6-1.06,1.45-1.98,2.52-2.78,1.08-.79,2.38-1.42,3.91-1.9,1.53-.47,3.2-.71,5.01-.71s3.53.24,5.04.71c1.51.47,2.8,1.1,3.88,1.9,1.08.79,1.92,1.72,2.52,2.78.6,1.06.91,2.15.91,3.29v2.15c0,1.02-.24,2-.71,2.95-.47.94-1.14,1.79-2.01,2.55-.87.76-1.92,1.41-3.14,1.95-1.23.55-2.6.92-4.11,1.11v6.4c2.98-.08,5.71-.2,8.19-.37,2.47-.17,4.9-.39,7.28-.65l.34,3.46ZM1474.82,342.25h12.8v3.51h-29.91v-3.51h13.14v-6.46h3.97v6.46ZM1472.89,352.05c-1.32,0-2.51.16-3.57.48-1.06.32-1.95.75-2.69,1.27-.74.53-1.3,1.11-1.7,1.76-.4.64-.59,1.3-.59,1.98v1.7c0,.68.2,1.35.59,2.01.4.66.96,1.26,1.7,1.79.74.53,1.63.95,2.69,1.27,1.06.32,2.25.48,3.57.48s2.51-.16,3.57-.48c1.06-.32,1.96-.75,2.69-1.27.74-.53,1.3-1.12,1.7-1.79.4-.66.59-1.33.59-2.01v-1.7c0-.68-.2-1.34-.59-1.98-.4-.64-.96-1.23-1.7-1.76-.74-.53-1.63-.95-2.69-1.27s-2.25-.48-3.57-.48ZM1498.67,388.03h-4.02v-51.78h4.02v51.78Z"/>
        </g>
        <g>
          <path class="cls-1" d="M934.86,652.52c0,34.03-24.66,54.75-63.13,54.75s-63.13-20.71-63.13-54.75v-99.88c0-34.03,24.66-54.75,63.13-54.75s63.13,20.72,63.13,54.75v99.88ZM910.2,559.8c0-25.65-9.86-39.71-38.47-39.71s-38.47,14.06-38.47,39.71v85.57c0,25.65,9.86,39.7,38.47,39.7s38.47-14.06,38.47-39.7v-85.57ZM962.97,721.08v-222.94h24.66v82.86h29.1v22.69h-29.1v117.39h-24.66Z"/>
          <path class="cls-1" d="M1416.97,622.93l-27.87-84.83c-1.23-3.95-1.97-5.18-5.43-5.18h-17.02c-3.45,0-4.19,1.48-5.43,5.18l-29.35,84.83h-25.89l31.07-90.01h-30.33v-22.2h56.23v-25.15h24.66v25.15h58.69v22.2h-32.8l29.35,90.01h-25.89ZM1326.21,721.08v-67.08c0-10.36,4.44-14.8,14.8-14.8h156.11v63.38c0,12.82-5.67,18.5-18.5,18.5h-152.41ZM1472.46,661.4h-121.58v37.49h121.58v-37.49ZM1472.46,627.86v-129.72h24.66v129.72h-24.66Z"/>
        </g>
      </g>
    </g>
  </g>
</svg>