<?xml version="1.0" encoding="UTF-8"?>
<svg xmlns="http://www.w3.org/2000/svg" version="1.1" viewBox="0 0 1920 1080">
  <defs>
    <style>
      .cls-1 {
        fill: #4d7758;
      }
    </style>
  </defs>
  <!-- Generator: Adobe Illustrator 28.7.3, SVG Export Plug-In . SVG Version: 1.2.0 Build 164)  -->
  <g>
    <g id="_레이어_1" data-name="레이어_1">
      <g>
        <path class="cls-1" d="M266.73,571.26c5.16,4.93,19.48,16.68,40.73,19.45,1.8.24,3.66.54,5.49.83,4.61.74,9.03,1.45,13.2,1.45,1.72,0,3.39-.12,5.01-.41,8.02-1.43,13.54-9.11,12.12-17.13-1.43-8.02-8.92-13.4-16.92-11.96-1.44.09-5.84-.61-8.74-1.07-2.12-.34-4.26-.68-6.34-.95-12.98-1.69-21.8-9.27-24.19-11.55-5.9-5.63-10.86-13.29-14.34-22.16-2.98-7.58-11.54-11.31-19.12-8.33-7.58,2.98-11.31,11.54-8.33,19.12,5.12,13.01,12.33,24.02,21.44,32.71Z"/>
        <path class="cls-1" d="M201.14,753.37c11.6,3.54,27.02,6.7,45.08,6.7,13.78,0,29.09-1.84,45.43-6.75,31.7-9.53,54.36-26.91,67.94-40.04,14.94,8.07,37.27,16.72,64.4,16.72,5.47,0,11.14-.35,16.97-1.13,31.7-4.23,55.41-19.3,69.72-31.21,6.26-5.21,7.11-14.51,1.9-20.77-5.21-6.26-14.51-7.11-20.77-1.9-11.32,9.42-30.02,21.35-54.75,24.64-23.66,3.16-43.79-2.82-57.89-9.48,10.95-15.87,19.09-33.75,23.88-52.51,31.13-12.53,55.98-30.5,73.2-42.95,24.57-17.76,49.15-37.97,79.12-87.61,19.49-27.93,29.33-62.79,26.92-99.64-3.78-57.75-42.1-105.04-97.63-120.49-30.6-8.52-65.2-7.93-98.34.66,9.81-17.71,21.6-35.1,35.21-51.84,5.13-6.32,4.17-15.61-2.15-20.74-6.32-5.14-15.61-4.17-20.74,2.15-22.02,27.1-39.7,55.9-52.47,85.2-10.9,5.29-21.33,11.52-31.07,18.63-45.97,33.56-63.99,60.87-91.57,111.02-3.92,7.14-1.32,16.1,5.82,20.03,7.14,3.92,16.1,1.32,20.03-5.82,25.68-46.72,41.33-70.6,81.57-100.28-1.21,4.61-2.3,9.21-3.25,13.81-12.37,59.5-6.79,112.65,16.14,153.71,18.2,32.6,46.91,42.79,64.06,48.87l1.59.56c8.44,3.01,19.29,4.7,31.31,4.7,8.2,0,16.95-.79,25.86-2.48-2.54,1.92-5.09,3.79-7.66,5.65-32.01,23.15-85.57,61.89-154.37,49.58-30.57-5.47-59.65-19.98-86.43-43.15-6.15-5.33-15.47-4.65-20.8,1.5-5.33,6.16-4.66,15.47,1.5,20.8,30.41,26.31,65.17,43.55,100.53,49.88,10.86,1.94,21.38,2.82,31.55,2.82,13.15,0,25.7-1.47,37.59-3.98-4.39,10.67-10.83,22.51-20.32,34.03-7.65,9.29-29.31,32.06-65.05,42.8-32.31,9.7-59.87,4.22-73.42.08-7.78-2.38-16.03,2.01-18.41,9.8-2.38,7.79,2.01,16.03,9.8,18.41ZM419.37,535.15l-1.63-.58c-15.77-5.6-35.39-12.56-48.18-35.46-24.53-43.93-20.62-96.75-13.01-133.33,2.85-13.69,6.98-27.47,12.33-41.2,35.15-14.49,74.96-18.35,107.85-9.2,43.95,12.23,73.11,48.25,76.11,94,1.71,26.1-4.09,50.93-16,71.81-.78.82-1.48,1.74-2.07,2.77-1.31,2.27-2.61,4.48-3.9,6.63-9.73,13.83-22.4,25.5-37.53,34.04-24.74,13.97-57.67,16.34-73.98,10.53Z"/>
        <path class="cls-1" d="M678.11,204.17c7.81-2.3,12.28-10.5,9.98-18.31-2.3-7.81-10.49-12.28-18.31-9.98-15.85,4.67-38.9,14.39-58.63,34.19-18.49,18.55-27.24,39.18-31.24,56.53-65.78-74.86-158.63-125.77-264.71-137.26-8.1-.89-15.37,4.97-16.25,13.07-.88,8.1,4.97,15.37,13.07,16.25,194.26,21.04,340.74,184.48,340.74,380.17,0,65.31-16.46,126.85-45.45,180.69-34.17,12.95-69.41,24.1-104.83,33.14-33.97,8.67-76.36,18.2-133.14,23.15-62.6,5.45-120.5-.28-163.96-5.89-4.21-.54-8.44.75-11.63,3.55-3.18,2.8-5.01,6.84-5.01,11.08v137.23c0,1.54.24,3.02.67,4.41-.17.57-.31,1.15-.41,1.74-1.36,8.03,4.05,15.64,12.08,17,22.73,3.85,46.03,5.8,69.26,5.8,227.12,0,411.9-184.78,411.9-411.9,0-88.58-27.87-171.03-75.72-238.53,0-.15-.01-.31-.03-.46-.8-9.36-1.34-42,25.52-68.95,15.34-15.39,33.52-23.02,46.08-26.72ZM270.36,921.25c-17.43,0-34.9-1.18-52.1-3.52v-116.5c42.61,4.98,96.01,8.99,153.66,3.97,58.9-5.12,102.75-14.98,137.88-23.95,24.35-6.22,48.62-13.4,72.53-21.45-69.36,97.64-183.34,161.46-311.96,161.46Z"/>
      </g>
      <g>
        <g>
          <path class="cls-1" d="M829.82,418.34c0,6-1.42,10.66-4.25,13.97-2.83,3.31-6.78,4.97-11.82,4.97s-8.99-1.65-11.82-4.97c-2.83-3.31-4.25-7.97-4.25-13.97v-6.72c0-5.95,1.42-10.58,4.25-13.9,2.83-3.31,6.77-4.97,11.82-4.97s8.99,1.67,11.82,5c2.83,3.33,4.25,7.98,4.25,13.93v6.64ZM824.89,412.55c0-2.71-.26-5.02-.79-6.93-.52-1.9-1.27-3.46-2.25-4.68-.98-1.21-2.16-2.1-3.54-2.64-1.38-.55-2.91-.82-4.57-.82s-3.19.27-4.57.82c-1.38.55-2.56,1.43-3.54,2.64-.98,1.21-1.73,2.77-2.25,4.68-.52,1.91-.79,4.21-.79,6.93v4.93c0,2.71.26,5.04.79,6.97.52,1.93,1.27,3.5,2.25,4.72.98,1.21,2.15,2.1,3.54,2.64,1.38.55,2.9.82,4.57.82s3.19-.27,4.57-.82c1.38-.55,2.56-1.43,3.54-2.64.98-1.21,1.73-2.79,2.25-4.72.52-1.93.79-4.25.79-6.97v-4.93ZM846.11,412.63h10.86v4.5h-10.86v36.29h-5.07v-65.3h5.07v24.5Z"/>
          <path class="cls-1" d="M922.19,425.7v4.36h-27.43v23.36h-5.07v-23.36h-27.5v-4.36h60.01ZM900.62,412.55c-4.76-2.38-7.55-4.38-8.36-6h-.07c-.76,1.62-3.55,3.64-8.36,6.07-1.95.95-4.17,2.01-6.64,3.18-2.48,1.17-5.22,2.32-8.22,3.47l-2.21-4c2.67-1,5.33-2.1,8-3.29,2.67-1.19,5.14-2.38,7.43-3.57,1.71-.9,3.07-1.77,4.07-2.61,1-.83,1.75-1.69,2.25-2.57.5-.88.82-1.82.96-2.82.14-1,.21-2.1.21-3.29v-.64h-19.79v-4.29h44.58v4.29h-19.72v.64c0,1.19.06,2.29.18,3.29.12,1,.43,1.94.93,2.82.5.88,1.25,1.74,2.25,2.57,1,.83,2.36,1.7,4.07,2.61,2.29,1.19,4.74,2.37,7.36,3.54,2.62,1.17,5.26,2.25,7.93,3.25l-2.14,3.93c-2.71-1.05-5.32-2.14-7.82-3.29s-4.8-2.24-6.89-3.29Z"/>
          <path class="cls-1" d="M956.7,394.34v4.57h-19.57v32.15h3c1.95,0,3.79-.02,5.5-.07,1.71-.05,3.38-.12,5-.21,1.62-.1,3.21-.24,4.79-.43,1.57-.19,3.17-.43,4.79-.71l.57,4.5c-3.43.57-6.75.96-9.97,1.18s-6.63.32-10.25.32h-8.5v-41.29h24.65ZM970.34,411.63h9.5v-23.5h5v65.3h-5v-37.29h-9.5v34.08h-5v-60.72h5v22.15Z"/>
          <path class="cls-1" d="M1017.78,395.48h16.36v4.36h-37.58v-4.36h16.22v-8.29h5v8.29ZM1015.28,427.56c-2.29,0-4.35-.3-6.18-.89-1.83-.6-3.41-1.39-4.71-2.39-1.31-1-2.31-2.15-3-3.46-.69-1.31-1.04-2.7-1.04-4.18v-2.57c0-1.48.34-2.87,1.04-4.18.69-1.31,1.69-2.46,3-3.47,1.31-1,2.88-1.8,4.71-2.39,1.83-.59,3.89-.89,6.18-.89s4.35.3,6.18.89c1.83.6,3.4,1.39,4.71,2.39,1.31,1,2.31,2.16,3,3.47.69,1.31,1.04,2.7,1.04,4.18v2.57c0,1.48-.35,2.87-1.04,4.18-.69,1.31-1.69,2.46-3,3.46-1.31,1-2.88,1.8-4.71,2.39-1.83.6-3.89.89-6.18.89ZM1015.28,407.34c-1.52,0-2.91.18-4.14.54-1.24.36-2.3.86-3.18,1.5-.88.64-1.57,1.38-2.07,2.21-.5.83-.75,1.73-.75,2.68v2.14c0,.95.25,1.85.75,2.68.5.83,1.19,1.57,2.07,2.21.88.64,1.94,1.14,3.18,1.5,1.24.36,2.62.54,4.14.54s2.85-.18,4.11-.54c1.26-.36,2.33-.86,3.21-1.5.88-.64,1.57-1.38,2.07-2.21.5-.83.75-1.73.75-2.68v-2.14c0-.95-.25-1.85-.75-2.68-.5-.83-1.19-1.57-2.07-2.21-.88-.64-1.95-1.14-3.21-1.5-1.26-.36-2.63-.54-4.11-.54ZM1006.2,432.56h40.94v21.43h-5v-17h-35.94v-4.43ZM1047.14,405.98h10v4.43h-10v18.29h-5v-40.58h5v17.86Z"/>
          <path class="cls-1" d="M1077,439.85v-23.93h5.07v23.93h11.07v-23.93h5.07v23.93h24.36v4.36h-60.01v-4.36h14.43ZM1106.86,430.77c.86-4.43,1.44-8.74,1.75-12.93.31-4.19.46-8.62.46-13.29v-5.93h-38.94v-4.43h44.08v7.72c0,3-.04,5.79-.11,8.36-.07,2.57-.2,5.04-.39,7.39-.19,2.36-.42,4.66-.68,6.89-.26,2.24-.61,4.5-1.04,6.79l-5.14-.57Z"/>
          <path class="cls-1" d="M1154.51,394.55h28.5v4.43h-11.5v9.72c0,1.67.06,3.1.18,4.29.12,1.19.33,2.29.64,3.29.31,1,.75,1.96,1.32,2.89.57.93,1.31,1.96,2.21,3.11,1.19,1.48,2.62,3.13,4.29,4.96,1.67,1.83,3.5,3.75,5.5,5.75l-3.29,3.21c-.81-.76-1.63-1.61-2.46-2.54-.83-.93-1.67-1.85-2.5-2.75-.83-.9-1.62-1.79-2.36-2.64-.74-.86-1.42-1.62-2.04-2.29-1.05-1.19-1.92-2.3-2.61-3.32-.69-1.02-1.11-1.73-1.25-2.11h-.07c-.1.38-.44,1.05-1.04,2-.6.95-1.44,2.07-2.54,3.36-1.33,1.52-2.83,3.2-4.5,5.04-1.67,1.83-3.64,3.87-5.93,6.11l-3.36-3.36c1.05-1,2.09-2.02,3.14-3.07,1.05-1.05,2.04-2.07,2.96-3.07.93-1,1.79-1.94,2.57-2.82.79-.88,1.44-1.68,1.96-2.39.86-1.1,1.56-2.12,2.11-3.07.55-.95.96-1.95,1.25-3,.29-1.05.49-2.18.61-3.39.12-1.21.18-2.61.18-4.18v-9.72h-12v-4.43ZM1191.09,410.2v-20.72h5v60.72h-5v-35.43h-11.57v-4.57h11.57ZM1208.81,453.42h-5v-65.3h5v65.3Z"/>
          <path class="cls-1" d="M1252.24,413.34v16.22h7.57v4.57h-7.57v11.43h-5v-11.43h-25.79v-4.57l25-35.51h5.71l-24.93,35.51h20v-16.22h5Z"/>
          <path class="cls-1" d="M1300.46,413.34v16.22h7.57v4.57h-7.57v11.43h-5v-11.43h-25.79v-4.57l25-35.51h5.71l-24.93,35.51h20v-16.22h5Z"/>
          <path class="cls-1" d="M1343.54,394.34v4.57h-19.58v32.15h3c1.95,0,3.79-.02,5.5-.07,1.71-.05,3.38-.12,5-.21,1.62-.1,3.21-.24,4.79-.43,1.57-.19,3.17-.43,4.79-.71l.57,4.5c-3.43.57-6.75.96-9.97,1.18s-6.63.32-10.25.32h-8.5v-41.29h24.65ZM1357.19,411.63h9.5v-23.5h5v65.3h-5v-37.29h-9.5v34.08h-5v-60.72h5v22.15Z"/>
          <path class="cls-1" d="M1433.34,421.41v-7.43h5v7.43h27.5v4.29h-60.01v-4.29h27.5ZM1435.77,406.05c-.76,1.48-3.41,3.12-7.93,4.93-2,.81-4.31,1.67-6.93,2.57-2.62.91-5.31,1.79-8.07,2.64l-2-4c3.24-1,6.11-1.93,8.61-2.79,2.5-.86,4.65-1.64,6.46-2.36,1.48-.57,2.69-1.14,3.64-1.71.95-.57,1.7-1.18,2.25-1.82.55-.64.93-1.33,1.14-2.07.21-.74.32-1.56.32-2.46v-.71h-19.79v-4.29h19.79v-6.79h5.07v6.79h19.86v4.29h-19.86v.71c0,.91.11,1.73.32,2.46.21.74.59,1.43,1.14,2.07.55.64,1.29,1.25,2.21,1.82.93.57,2.13,1.14,3.61,1.71,1.81.71,4,1.5,6.57,2.36,2.57.86,5.4,1.76,8.5,2.71l-1.86,4c-3-.95-5.69-1.83-8.07-2.64-2.38-.81-4.71-1.67-7-2.57-4.43-1.76-7.07-3.38-7.93-4.86h-.07ZM1435.84,430.63c2.67,0,5.23.24,7.68.71,2.45.48,4.61,1.18,6.47,2.11s3.35,2.08,4.46,3.46c1.12,1.38,1.68,3,1.68,4.86v2.29c0,1.86-.56,3.48-1.68,4.86-1.12,1.38-2.61,2.54-4.46,3.46s-4.01,1.63-6.47,2.11c-2.45.48-5.01.71-7.68.71s-5.23-.24-7.68-.71c-2.45-.48-4.61-1.18-6.47-2.11s-3.35-2.08-4.46-3.46c-1.12-1.38-1.68-3-1.68-4.86v-2.29c0-1.86.56-3.49,1.68-4.89,1.12-1.4,2.61-2.57,4.46-3.5s4.01-1.62,6.47-2.07c2.45-.45,5.01-.68,7.68-.68ZM1435.84,450.92c1.9,0,3.79-.15,5.64-.46,1.86-.31,3.51-.76,4.97-1.36,1.45-.6,2.62-1.35,3.5-2.25.88-.91,1.32-1.93,1.32-3.07v-1.71c0-1.14-.44-2.15-1.32-3.04-.88-.88-2.05-1.63-3.5-2.25-1.45-.62-3.11-1.08-4.97-1.39-1.86-.31-3.74-.46-5.64-.46s-3.85.15-5.68.46c-1.83.31-3.48.77-4.93,1.39-1.45.62-2.62,1.37-3.5,2.25s-1.32,1.89-1.32,3.04v1.71c0,1.14.44,2.17,1.32,3.07.88.9,2.05,1.65,3.5,2.25,1.45.59,3.1,1.05,4.93,1.36,1.83.31,3.73.46,5.68.46Z"/>
          <path class="cls-1" d="M1494.64,395.48h16.36v4.36h-37.58v-4.36h16.22v-8.29h5v8.29ZM1492.14,427.56c-2.29,0-4.35-.3-6.18-.89-1.83-.6-3.41-1.39-4.71-2.39-1.31-1-2.31-2.15-3-3.46-.69-1.31-1.04-2.7-1.04-4.18v-2.57c0-1.48.34-2.87,1.04-4.18.69-1.31,1.69-2.46,3-3.47,1.31-1,2.88-1.8,4.71-2.39,1.83-.59,3.89-.89,6.18-.89s4.35.3,6.18.89c1.83.6,3.4,1.39,4.71,2.39,1.31,1,2.31,2.16,3,3.47.69,1.31,1.04,2.7,1.04,4.18v2.57c0,1.48-.35,2.87-1.04,4.18-.69,1.31-1.69,2.46-3,3.46-1.31,1-2.88,1.8-4.71,2.39-1.83.6-3.89.89-6.18.89ZM1492.14,407.34c-1.52,0-2.91.18-4.14.54-1.24.36-2.3.86-3.18,1.5-.88.64-1.57,1.38-2.07,2.21-.5.83-.75,1.73-.75,2.68v2.14c0,.95.25,1.85.75,2.68.5.83,1.19,1.57,2.07,2.21.88.64,1.94,1.14,3.18,1.5,1.24.36,2.62.54,4.14.54s2.85-.18,4.11-.54c1.26-.36,2.33-.86,3.21-1.5.88-.64,1.57-1.38,2.07-2.21.5-.83.75-1.73.75-2.68v-2.14c0-.95-.25-1.85-.75-2.68-.5-.83-1.19-1.57-2.07-2.21-.88-.64-1.95-1.14-3.21-1.5-1.26-.36-2.63-.54-4.11-.54ZM1483.07,432.56h40.94v21.43h-5v-17h-35.94v-4.43ZM1524,405.98h10v4.43h-10v18.29h-5v-40.58h5v17.86Z"/>
          <path class="cls-1" d="M1567.94,423.27c-1.38-1.14-2.76-2.36-4.14-3.64-1.38-1.29-2.62-2.48-3.71-3.57-2.67-2.57-4.12-4.26-4.36-5.07h-.07c-.1.38-.43.99-1,1.82-.57.83-1.38,1.82-2.43,2.96-.57.62-1.27,1.35-2.11,2.18-.83.83-1.71,1.69-2.64,2.57-.93.88-1.87,1.75-2.82,2.61-.95.86-1.81,1.6-2.57,2.21l-3.21-3.36c.81-.67,1.68-1.4,2.61-2.21.93-.81,1.83-1.63,2.71-2.46.88-.83,1.74-1.68,2.57-2.54.83-.86,1.56-1.64,2.18-2.36.86-1,1.56-1.93,2.11-2.79.55-.86.98-1.73,1.29-2.61.31-.88.51-1.82.61-2.82.09-1,.14-2.19.14-3.57v-9.14h5v9.07c0,1.33.05,2.49.14,3.46.09.98.29,1.89.57,2.75.29.86.7,1.68,1.25,2.46.55.79,1.3,1.68,2.25,2.68,1.1,1.14,2.41,2.43,3.93,3.86,1.52,1.43,3.14,2.83,4.86,4.22l-3.14,3.29ZM1574.79,455.13c-2.67,0-5.22-.27-7.64-.82-2.43-.55-4.57-1.33-6.43-2.36-1.86-1.02-3.33-2.27-4.43-3.75-1.1-1.48-1.64-3.14-1.64-5v-2.57c0-1.9.55-3.6,1.64-5.07,1.1-1.48,2.57-2.73,4.43-3.75,1.86-1.02,4-1.8,6.43-2.32,2.43-.52,4.98-.79,7.64-.79s5.21.27,7.64.82c2.43.55,4.57,1.33,6.43,2.36,1.86,1.02,3.33,2.28,4.43,3.75,1.09,1.48,1.64,3.14,1.64,5v2.57c0,1.86-.55,3.52-1.64,5-1.1,1.48-2.57,2.73-4.43,3.75-1.86,1.02-4,1.81-6.43,2.36-2.43.55-4.98.82-7.64.82ZM1574.79,432.99c-1.91,0-3.78.17-5.61.5-1.83.33-3.46.83-4.89,1.5-1.43.67-2.58,1.49-3.46,2.46-.88.98-1.32,2.11-1.32,3.39v2.14c0,1.29.44,2.42,1.32,3.39.88.98,2.04,1.8,3.46,2.46,1.43.67,3.06,1.17,4.89,1.5,1.83.33,3.7.5,5.61.5s3.77-.17,5.61-.5c1.83-.33,3.46-.83,4.89-1.5,1.43-.67,2.58-1.49,3.46-2.46.88-.98,1.32-2.11,1.32-3.39v-2.14c0-1.29-.44-2.42-1.32-3.39-.88-.98-2.04-1.8-3.46-2.46-1.43-.67-3.06-1.17-4.89-1.5-1.83-.33-3.7-.5-5.61-.5ZM1580.08,404.12h9.57v-16h4.93v39.15h-4.93v-18.65h-9.57v16.07h-4.93v-35.72h4.93v15.15Z"/>
          <path class="cls-1" d="M1651.74,439.35c-2.95.29-5.87.54-8.75.75-2.88.21-6,.39-9.36.54-3.36.14-7.1.24-11.22.29-4.12.05-8.92.07-14.4.07v-4.43h10.04c3.07,0,5.96-.05,8.68-.14v-8.14c-2-.19-3.83-.61-5.5-1.25s-3.1-1.46-4.29-2.46c-1.19-1-2.11-2.11-2.75-3.32-.64-1.21-.96-2.49-.96-3.82v-2.71c0-1.43.38-2.81,1.14-4.14.76-1.33,1.82-2.5,3.18-3.5,1.36-1,3-1.8,4.93-2.39,1.93-.6,4.04-.89,6.32-.89s4.45.3,6.36.89c1.9.6,3.54,1.39,4.89,2.39,1.36,1,2.42,2.17,3.18,3.5.76,1.33,1.14,2.71,1.14,4.14v2.71c0,1.29-.3,2.53-.89,3.72-.6,1.19-1.44,2.26-2.54,3.21-1.1.95-2.42,1.77-3.96,2.46-1.55.69-3.28,1.16-5.18,1.39v8.07c3.76-.1,7.2-.25,10.32-.46,3.12-.21,6.18-.49,9.18-.82l.43,4.36ZM1631.23,395.69h16.15v4.43h-37.72v-4.43h16.57v-8.14h5v8.14ZM1628.8,408.05c-1.67,0-3.17.2-4.5.61-1.33.41-2.46.94-3.39,1.61-.93.67-1.64,1.41-2.14,2.21-.5.81-.75,1.64-.75,2.5v2.14c0,.86.25,1.7.75,2.54.5.83,1.21,1.58,2.14,2.25.93.67,2.06,1.2,3.39,1.61,1.33.41,2.83.61,4.5.61s3.17-.2,4.5-.61c1.33-.4,2.46-.94,3.39-1.61.93-.67,1.64-1.42,2.14-2.25.5-.83.75-1.68.75-2.54v-2.14c0-.86-.25-1.69-.75-2.5-.5-.81-1.21-1.55-2.14-2.21-.93-.67-2.06-1.2-3.39-1.61-1.33-.4-2.83-.61-4.5-.61ZM1661.31,453.42h-5.07v-65.3h5.07v65.3Z"/>
        </g>
        <g>
          <path class="cls-1" d="M1369.17,633.17c0,22.18-16.07,35.68-41.15,35.68s-41.15-13.5-41.15-35.68v-65.1c0-22.18,16.07-35.68,41.15-35.68s41.15,13.5,41.15,35.68v65.1ZM1353.09,572.74c0-16.72-6.43-25.88-25.08-25.88s-25.08,9.16-25.08,25.88v55.78c0,16.72,6.43,25.88,25.08,25.88s25.08-9.16,25.08-25.88v-55.78ZM1387.49,677.86v-145.31h16.07v54.01h18.97v14.79h-18.97v76.51h-16.07Z"/>
          <path class="cls-1" d="M1609.48,613.88l-18.16-55.29c-.8-2.57-1.29-3.38-3.54-3.38h-11.09c-2.25,0-2.73.96-3.54,3.38l-19.13,55.29h-16.88l20.25-58.67h-19.77v-14.47h36.65v-16.39h16.07v16.39h38.25v14.47h-21.38l19.13,58.67h-16.88ZM1550.32,677.86v-43.72c0-6.75,2.89-9.64,9.64-9.64h101.75v41.31c0,8.36-3.7,12.06-12.06,12.06h-99.33ZM1645.64,638.96h-79.24v24.43h79.24v-24.43ZM1645.64,617.1v-84.55h16.07v84.55h-16.07Z"/>
        </g>
      </g>
    </g>
  </g>
</svg>